<svg width="119" height="29" viewBox="0 0 119 29" fill="none" xmlns="http://www.w3.org/2000/svg">
<path d="M31.5926 15.4615L31.9816 16.3828L31.5844 16.5505L31.1898 16.3768L31.5926 15.4615ZM63.4706 2L63.0816 1.07877L63.4834 0.90909L63.8811 1.08815L63.4706 2ZM119 27L107.511 28.1593L112.252 17.6302L119 27ZM1.40276 1.08469L31.9954 14.5462L31.1898 16.3768L0.597241 2.91531L1.40276 1.08469ZM31.2036 14.5403L63.0816 1.07877L63.8596 2.92123L31.9816 16.3828L31.2036 14.5403ZM63.8811 1.08815L111.204 22.3934L110.383 24.2171L63.0601 2.91185L63.8811 1.08815Z" fill="#992947"/>
</svg>
