<svg width="119" height="29" viewBox="0 0 119 29" fill="none" xmlns="http://www.w3.org/2000/svg">
<path d="M31.5926 13.5385L31.9816 12.6172L31.5844 12.4495L31.1898 12.6232L31.5926 13.5385ZM63.4706 27L63.0816 27.9212L63.4834 28.0909L63.8811 27.9118L63.4706 27ZM119 2L107.511 0.840689L112.252 11.3698L119 2ZM1.40276 27.9153L31.9954 14.4538L31.1898 12.6232L0.597241 26.0847L1.40276 27.9153ZM31.2036 14.4597L63.0816 27.9212L63.8596 26.0788L31.9816 12.6172L31.2036 14.4597ZM63.8811 27.9118L111.204 6.60658L110.383 4.78288L63.0601 26.0882L63.8811 27.9118Z" fill="#992947"/>
</svg>
