<svg width="63" height="58" viewBox="0 0 63 58" fill="none" xmlns="http://www.w3.org/2000/svg">
<path d="M60.1674 29C60.1674 45.0163 47.1836 58 31.1674 58C15.1511 58 2.16736 45.0163 2.16736 29C2.16736 12.9837 15.1511 0 31.1674 0C47.1836 0 60.1674 12.9837 60.1674 29ZM7.4632 29C7.4632 42.0914 18.0759 52.7042 31.1674 52.7042C44.2588 52.7042 54.8715 42.0914 54.8715 29C54.8715 15.9086 44.2588 5.29584 31.1674 5.29584C18.0759 5.29584 7.4632 15.9086 7.4632 29Z" fill="#E0B1A7"/>
<path d="M59.1673 23H3.16735C19.5505 23 24.8618 43.4662 26.2471 50.8684C26.5275 52.3669 27.8182 53.5 29.3428 53.5H32.3112C33.9108 53.5 35.2437 52.246 35.4574 50.6608C36.4777 43.0913 40.9058 23 59.1673 23Z" fill="#E0B1A7" stroke="#E0B1A7" stroke-linecap="round"/>
<path d="M39.1674 57C49.1674 53 59.7674 43 60.1674 29" stroke="#0E1815" stroke-width="2" stroke-linecap="round"/>
<circle cx="30.6674" cy="32.5" r="6.5" fill="#FDF0D3"/>
</svg>
