<svg width="28" height="9" viewBox="0 0 28 9" fill="none" xmlns="http://www.w3.org/2000/svg">
<path d="M7.56757 4.5C7.56757 6.70914 5.87351 8.5 3.78378 8.5C1.69406 8.5 0 6.70914 0 4.5C0 2.29086 1.69406 0.5 3.78378 0.5C5.87351 0.5 7.56757 2.29086 7.56757 4.5Z" fill="#E0B1A7"/>
<path d="M17.4054 4.5C17.4054 6.70914 15.8808 8.5 14 8.5C12.1192 8.5 10.5946 6.70914 10.5946 4.5C10.5946 2.29086 12.1192 0.5 14 0.5C15.8808 0.5 17.4054 2.29086 17.4054 4.5Z" fill="#E0B1A7"/>
<path d="M28 4.5C28 6.70914 26.3059 8.5 24.2162 8.5C22.1265 8.5 20.4324 6.70914 20.4324 4.5C20.4324 2.29086 22.1265 0.5 24.2162 0.5C26.3059 0.5 28 2.29086 28 4.5Z" fill="#E0B1A7"/>
</svg>
